<svg width="168" height="230" viewBox="0 0 168 230" fill="none" xmlns="http://www.w3.org/2000/svg">
<path d="M0 185.648L1.3927 183.699L67.2583 58.7203L67.3974 57.3971L38.3632 2.85878C35.9294 -1.70965 29.0807 -0.554422 28.283 4.5598L0 185.648Z" fill="#FFC24A"/>
<path d="M88.5641 98.6501L110.183 76.5099L88.5575 35.2274C86.5049 31.3196 80.7733 31.3078 78.7423 35.2274L67.1881 57.2607V59.1369L88.5634 98.6501H88.5641Z" fill="#F4BD62"/>
<path d="M0 185.648L0.631078 185.013L2.92447 184.082L87.2061 100.113L88.2741 97.2062L67.2491 57.1413L0 185.648Z" fill="#F6820C"/>
<path d="M91.2642 227.995L167.541 185.455L145.759 51.3055C145.078 47.1083 139.929 45.4493 136.924 48.4584L0 185.648L75.8395 227.992C78.1968 229.308 80.8516 229.999 83.5514 230C86.2513 230.001 88.9063 229.311 91.2642 227.995" fill="#FDE068"/>
<path d="M166.858 185.099L145.241 51.9674C144.565 47.8018 140.283 46.0784 137.301 49.0652L0.846313 185.387L75.8534 227.311C78.1927 228.617 80.8272 229.303 83.5065 229.304C86.1857 229.305 88.8206 228.62 91.1606 227.315L166.858 185.098L166.858 185.099Z" fill="#FCCA3F"/>
<path d="M91.2635 226.742C88.9057 228.057 86.2507 228.747 83.5511 228.746C80.8514 228.746 78.1967 228.054 75.8395 226.738L0.610696 185.003L0.000610352 185.648L75.8395 227.992C78.1968 229.308 80.8516 229.999 83.5514 230C86.2512 230.001 88.9063 229.31 91.2641 227.995L167.541 185.455L167.354 184.306L91.2641 226.742L91.2635 226.742Z" fill="#EEAB37"/>
</svg>
