<svg width="230" height="230" viewBox="0 0 230 230" fill="none" xmlns="http://www.w3.org/2000/svg">
<path d="M0 0H230V230H0V0Z" fill="#F7DF1E"/>
<path d="M60.4756 192.205L78.076 181.553C81.4721 187.573 84.5609 192.667 91.9704 192.667C99.0725 192.667 103.551 189.889 103.551 179.083V105.593H125.165V179.388C125.165 201.775 112.042 211.965 92.8967 211.965C75.6062 211.965 65.5698 203.01 60.4747 192.203M136.905 189.888L154.503 179.699C159.137 187.265 165.158 192.823 175.81 192.823C184.766 192.823 190.477 188.345 190.477 182.169C190.477 174.759 184.61 172.133 174.729 167.812L169.327 165.494C153.733 158.857 143.389 150.52 143.389 132.919C143.389 116.708 155.74 104.356 175.039 104.356C188.78 104.356 198.661 109.143 205.762 121.648L188.932 132.457C185.226 125.818 181.214 123.194 175.038 123.194C168.708 123.194 164.693 127.208 164.693 132.457C164.693 138.941 168.708 141.567 177.971 145.581L183.374 147.896C201.747 155.771 212.091 163.799 212.091 181.861C212.091 201.316 196.806 211.968 176.273 211.968C156.202 211.968 143.233 202.396 136.904 189.889" fill="black"/>
</svg>
