<svg width="259" height="230" viewBox="0 0 259 230" fill="none" xmlns="http://www.w3.org/2000/svg">
<path d="M212.547 74.5476C209.796 73.6037 207.021 72.7293 204.226 71.9252C204.695 70.0065 205.128 68.1111 205.511 66.2491C211.811 35.6712 207.693 11.037 193.627 2.92624C180.141 -4.84926 158.086 3.25846 135.812 22.6437C133.616 24.5576 131.47 26.5267 129.374 28.549C127.971 27.2042 126.543 25.8855 125.092 24.5936C101.747 3.86637 78.3477 -4.86945 64.2973 3.26452C50.8235 11.0643 46.8337 34.2221 52.5048 63.2015C53.069 66.0716 53.7061 68.9269 54.4153 71.7646C51.1032 72.7058 47.9071 73.7075 44.8485 74.7738C17.4787 84.3165 0 99.2707 0 114.782C0 130.803 18.7642 146.872 47.271 156.615C49.5821 157.402 51.9124 158.131 54.2598 158.802C53.4975 161.858 52.8206 164.935 52.2301 168.029C46.8236 196.506 51.0456 219.116 64.4831 226.867C78.3618 234.87 101.656 226.644 124.337 206.817C126.176 205.205 127.975 203.547 129.732 201.846C132.001 204.035 134.331 206.162 136.719 208.222C158.691 227.127 180.389 234.761 193.814 226.99C207.679 218.963 212.186 194.673 206.335 165.121C205.874 162.806 205.358 160.502 204.785 158.212C206.421 157.727 208.027 157.228 209.592 156.709C239.228 146.891 258.51 131.017 258.51 114.782C258.51 99.2141 240.467 84.159 212.547 74.5476V74.5476ZM206.119 146.228C204.706 146.695 203.255 147.147 201.777 147.586C198.505 137.228 194.09 126.215 188.687 114.836C193.843 103.728 198.088 92.8554 201.268 82.5655C203.913 83.3309 206.479 84.1378 208.953 84.989C232.875 93.225 247.467 105.4 247.467 114.782C247.467 124.775 231.708 137.748 206.119 146.228V146.228ZM195.502 167.266C198.089 180.333 198.458 192.147 196.744 201.384C195.205 209.684 192.109 215.216 188.28 217.433C180.134 222.149 162.712 216.019 143.922 199.85C141.701 197.935 139.534 195.958 137.422 193.923C144.707 185.956 151.987 176.695 159.092 166.41C171.589 165.301 183.396 163.487 194.103 161.012C194.618 163.085 195.085 165.171 195.502 167.266V167.266ZM88.1317 216.618C80.1724 219.428 73.8329 219.509 70.0007 217.3C61.8465 212.597 58.4566 194.442 63.0805 170.089C63.6301 167.212 64.2595 164.35 64.9678 161.507C75.5566 163.85 87.2774 165.534 99.804 166.55C106.957 176.615 114.447 185.865 121.996 193.966C120.391 195.518 118.749 197.031 117.071 198.502C107.04 207.269 96.9897 213.49 88.1317 216.618V216.618ZM50.8437 146.166C38.2383 141.857 27.8282 136.258 20.6929 130.147C14.2807 124.657 11.0442 119.205 11.0442 114.782C11.0442 105.369 25.0775 93.3623 48.4837 85.2021C51.3243 84.2125 54.2972 83.2784 57.3821 82.4019C60.6176 92.9241 64.8608 103.926 69.9815 115.051C64.7941 126.341 60.4903 137.518 57.2236 148.164C55.0809 147.551 52.9536 146.884 50.8437 146.166V146.166ZM63.343 61.0799C58.4849 36.2518 61.7112 17.523 69.831 12.8223C78.479 7.81571 97.6027 14.954 117.759 32.8518C119.074 34.0215 120.367 35.215 121.638 36.4316C114.127 44.4969 106.706 53.679 99.6162 63.6842C87.4582 64.8111 75.8202 66.6207 65.1203 69.0452C64.461 66.4058 63.8684 63.7502 63.343 61.0809V61.0799ZM174.853 88.6152C172.325 84.2498 169.704 79.9393 166.991 75.6867C175.239 76.7298 183.142 78.1143 190.563 79.8067C188.336 86.948 185.559 94.4135 182.29 102.068C179.901 97.5346 177.421 93.0495 174.853 88.6152V88.6152ZM129.379 44.3242C134.473 49.8428 139.574 56.0036 144.592 62.6885C134.413 62.2078 124.217 62.2057 114.038 62.6824C119.061 56.0591 124.206 49.9064 129.379 44.3242ZM83.6138 88.691C81.0776 93.0895 78.6443 97.5467 76.316 102.059C73.1008 94.4317 70.349 86.9319 68.1022 79.6896C75.4778 78.0395 83.3432 76.6904 91.5388 75.6665C88.7956 79.945 86.1532 84.2874 83.6138 88.69V88.691ZM91.7741 154.684C83.3069 153.739 75.3233 152.459 67.9498 150.854C70.2319 143.482 73.0442 135.823 76.3291 128.032C78.6666 132.547 81.11 137.007 83.6573 141.408C86.2767 145.932 88.989 150.363 91.7741 154.684ZM129.684 186.018C124.449 180.371 119.229 174.123 114.13 167.404C119.08 167.598 124.126 167.697 129.255 167.697C134.524 167.697 139.733 167.579 144.86 167.351C139.826 174.191 134.743 180.448 129.684 186.018ZM182.394 127.634C185.849 135.511 188.762 143.13 191.074 150.375C183.579 152.085 175.487 153.463 166.96 154.486C169.692 150.154 172.338 145.769 174.896 141.332C177.497 136.822 179.997 132.255 182.394 127.634V127.634ZM165.33 135.815C161.414 142.617 157.278 149.29 152.929 155.824C145.05 156.382 137.154 156.659 129.255 156.655C121.21 156.655 113.385 156.404 105.85 155.916C101.387 149.397 97.1717 142.712 93.2141 135.875H93.2151C89.276 129.074 85.5967 122.126 82.185 115.046C85.588 107.964 89.2562 101.013 93.1817 94.2065L93.1807 94.2075C97.1048 87.3996 101.286 80.7433 105.715 74.2528C113.403 73.6711 121.287 73.3682 129.254 73.3682H129.255C137.259 73.3682 145.152 73.6742 152.838 74.2598C157.223 80.7406 161.377 87.3741 165.294 94.1479C169.233 100.939 172.949 107.857 176.438 114.889C172.985 121.994 169.28 128.974 165.33 135.815V135.815ZM188.111 12.4931C196.767 17.4856 200.134 37.6181 194.695 64.0194C194.348 65.7038 193.958 67.4194 193.534 69.1593C182.808 66.6833 171.162 64.8424 158.968 63.6983C151.866 53.5831 144.505 44.3868 137.116 36.4255C139.053 34.5589 141.035 32.7407 143.062 30.9726C162.147 14.3643 179.985 7.80662 188.111 12.4931V12.4931ZM129.255 91.6982C142.004 91.6982 152.339 102.034 152.339 114.782C152.339 127.531 142.004 137.866 129.255 137.866C116.506 137.866 106.171 127.531 106.171 114.782C106.171 102.034 116.506 91.6982 129.255 91.6982V91.6982Z" fill="#00D8FF"/>
</svg>
